<?xml version="1.0" ?><svg style="enable-background:new 0 0 100 100;" version="1.1" viewBox="0 0 100 100" xml:space="preserve" xmlns="http://www.w3.org/2000/svg" xmlns:xlink="http://www.w3.org/1999/xlink"><style type="text/css">
	.st0{fill:#FFFFFF;}
	.st1{fill:#D43C89;}
	.st2{fill:#B2005F;}
	.st3{fill:none;stroke:#000000;stroke-width:3;stroke-linecap:round;stroke-linejoin:round;stroke-miterlimit:10;}
	
		.st4{fill-rule:evenodd;clip-rule:evenodd;fill:none;stroke:#000000;stroke-width:3;stroke-linecap:round;stroke-linejoin:round;stroke-miterlimit:10;}
	
		.st5{fill-rule:evenodd;clip-rule:evenodd;fill:none;stroke:#040404;stroke-width:3;stroke-linecap:round;stroke-linejoin:round;stroke-miterlimit:10;}
	.st6{fill-rule:evenodd;clip-rule:evenodd;}
	.st7{fill-rule:evenodd;clip-rule:evenodd;fill:#040404;}
	.st8{fill:url(#SVGID_1_);}
	.st9{fill:url(#SVGID_2_);}
	.st10{fill:url(#SVGID_3_);}
	.st11{fill:url(#SVGID_4_);}
	.st12{fill:url(#SVGID_5_);}
	.st13{fill:url(#SVGID_6_);}
	.st14{fill:url(#SVGID_7_);}
	.st15{fill:url(#SVGID_8_);}
	.st16{fill:url(#SVGID_9_);}
	.st17{fill:url(#SVGID_10_);}
	.st18{fill:url(#SVGID_11_);}
	.st19{fill:url(#SVGID_12_);}
	.st20{fill:url(#SVGID_13_);}
	.st21{fill:url(#SVGID_14_);}
	.st22{fill:url(#SVGID_15_);}
	.st23{fill:url(#SVGID_16_);}
	.st24{fill:url(#SVGID_17_);}
	.st25{fill:url(#SVGID_18_);}
	.st26{fill:url(#SVGID_19_);}
	.st27{fill:url(#SVGID_20_);}
	.st28{fill:url(#SVGID_21_);}
	.st29{fill:url(#SVGID_22_);}
	.st30{fill:url(#SVGID_23_);}
	.st31{fill:url(#SVGID_24_);}
	.st32{fill:url(#SVGID_25_);}
	.st33{fill:url(#SVGID_26_);}
	.st34{fill:url(#SVGID_27_);}
	.st35{fill:url(#SVGID_28_);}
	.st36{fill:url(#SVGID_29_);}
	.st37{fill:url(#SVGID_30_);}
	.st38{fill:url(#SVGID_31_);}
	.st39{fill:url(#SVGID_32_);}
	.st40{fill:url(#SVGID_33_);}
	.st41{fill:url(#SVGID_34_);}
	.st42{fill:url(#SVGID_35_);}
	.st43{fill:url(#SVGID_36_);}
	.st44{fill:url(#SVGID_37_);}
	.st45{fill:url(#SVGID_38_);}
	.st46{fill:url(#SVGID_39_);}
	.st47{fill:url(#SVGID_40_);}
	.st48{fill:url(#SVGID_41_);}
	.st49{fill:url(#SVGID_42_);}
	.st50{fill:url(#SVGID_43_);}
	.st51{fill:url(#SVGID_44_);}
	.st52{fill:url(#SVGID_45_);}
	.st53{fill:#040404;}
	.st54{fill:url(#SVGID_46_);}
	.st55{fill:url(#SVGID_47_);}
	.st56{fill:url(#SVGID_48_);}
	.st57{fill:url(#SVGID_49_);}
	.st58{fill:url(#SVGID_50_);}
	.st59{fill:url(#SVGID_51_);}
	.st60{fill:url(#SVGID_52_);}
	.st61{fill:url(#SVGID_53_);}
	.st62{fill:url(#SVGID_54_);}
	.st63{fill:url(#SVGID_55_);}
	.st64{fill:url(#SVGID_56_);}
	.st65{fill:url(#SVGID_57_);}
	.st66{fill:url(#SVGID_58_);}
	.st67{fill:url(#SVGID_59_);}
	.st68{fill:url(#SVGID_60_);}
	.st69{fill:url(#SVGID_61_);}
	.st70{fill:url(#SVGID_62_);}
	.st71{fill:none;stroke:#000000;stroke-width:3;stroke-miterlimit:10;}
	.st72{fill:none;stroke:#FFFFFF;stroke-miterlimit:10;}
	.st73{fill:#4BC9FF;}
	.st74{fill:#5500DD;}
	.st75{fill:#FF3A00;}
	.st76{fill:#E6162D;}
	.st77{fill:#F1F1F1;}
	.st78{fill:#FF9933;}
	.st79{fill:#B92B27;}
	.st80{fill:#00ACED;}
	.st81{fill:#BD2125;}
	.st82{fill:#1877F2;}
	.st83{fill:#6665D2;}
	.st84{fill:#CE3056;}
	.st85{fill:#5BB381;}
	.st86{fill:#61C3EC;}
	.st87{fill:#E4B34B;}
	.st88{fill:#181EF2;}
	.st89{fill:#FF0000;}
	.st90{fill:#FE466C;}
	.st91{fill:#FA4778;}
	.st92{fill:#FF7700;}
	.st93{fill-rule:evenodd;clip-rule:evenodd;fill:#1F6BF6;}
	.st94{fill:#520094;}
	.st95{fill:#4477E8;}
	.st96{fill:#3D1D1C;}
	.st97{fill:#FFE812;}
	.st98{fill:#344356;}
	.st99{fill:#00CC76;}
	.st100{fill-rule:evenodd;clip-rule:evenodd;fill:#345E90;}
	.st101{fill:#1F65D8;}
	.st102{fill:#EB3587;}
	.st103{fill-rule:evenodd;clip-rule:evenodd;fill:#603A88;}
	.st104{fill:#E3CE99;}
	.st105{fill:#783AF9;}
	.st106{fill:#FF515E;}
	.st107{fill:#FF4906;}
	.st108{fill:#503227;}
	.st109{fill:#4C7BD9;}
	.st110{fill:#69C9D0;}
	.st111{fill:#1B92D1;}
	.st112{fill:#EB4F4A;}
	.st113{fill:#513728;}
	.st114{fill:#FF6600;}
	.st115{fill-rule:evenodd;clip-rule:evenodd;fill:#B61438;}
	.st116{fill:#FFFC00;}
	.st117{fill:#141414;}
	.st118{fill:#94D137;}
	.st119{fill-rule:evenodd;clip-rule:evenodd;fill:#F1F1F1;}
	.st120{fill-rule:evenodd;clip-rule:evenodd;fill:#66E066;}
	.st121{fill:#2D8CFF;}
	.st122{fill:#F1A300;}
	.st123{fill:#4BA2F2;}
	.st124{fill:#1A5099;}
	.st125{fill:#EE6060;}
	.st126{fill-rule:evenodd;clip-rule:evenodd;fill:#F48120;}
	.st127{fill:#222222;}
	.st128{fill:url(#SVGID_63_);}
	.st129{fill:#0077B5;}
	.st130{fill:#FFCC00;}
	.st131{fill:#EB3352;}
	.st132{fill:#F9D265;}
	.st133{fill:#F5B955;}
	.st134{fill:#DD2A7B;}
	.st135{fill:#F5BB41;}
	.st136{fill:#2167D1;}
	.st137{fill:#3D84F3;}
	.st138{fill:#4CA853;}
	.st139{fill:#398039;}
	.st140{fill:#D74F3F;}
	.st141{fill:#66E066;}
	.st142{fill:#EB4E00;}
	.st143{fill:#FFC794;}
	.st144{fill:#B5332A;}
	.st145{fill:#4E85EB;}
	.st146{fill:#58A45C;}
	.st147{fill:#F2BC42;}
	.st148{fill:#D85040;}
	.st149{fill:#464EB8;}
	.st150{fill:#7B83EB;}
</style><g id="Layer_1"/><g id="Layer_2"><g><g><path class="st76" d="M73.615,48.447c-1.314-0.399-2.216-0.657-1.533-2.383c5.033-13.409-7.597-15.071-20.803-9.416     c0,0-2.989,1.301-2.216-1.056c1.456-4.702,1.237-8.63-1.03-10.91c-5.152-5.165-18.871,0.193-30.632,11.954     C8.603,45.433,3.489,54.771,3.489,62.848c0,15.432,19.799,24.822,39.159,24.822c25.389,0,42.277-14.749,42.277-26.458     C84.938,54.127,78.974,50.108,73.615,48.447z"/><path class="st77" d="M42.713,82.131C27.255,83.664,13.91,76.67,12.906,66.532c-1.058-24.473,52.225-29.73,55.956-5.539     C69.88,71.144,58.158,80.611,42.713,82.131z"/><path class="st78" d="M90.144,20.486c-6.132-6.801-15.174-9.39-23.521-7.613c-1.932,0.412-3.156,2.319-2.744,4.238     c0.412,1.932,2.306,3.156,4.238,2.744c13.098-2.893,24.605,9.876,20.391,22.594c-1.338,4.509,5.24,6.64,6.801,2.203     C97.931,36.543,96.283,27.28,90.144,20.486z"/><path class="st78" d="M79.412,42.69c1.623,0.515,3.349-0.361,3.877-1.984c2.94-8.629-5.084-17.528-13.964-15.47     c-1.662,0.348-2.718,1.997-2.37,3.658c0.361,1.662,1.997,2.718,3.645,2.357c1.984-0.425,4.148,0.193,5.603,1.803     c1.456,1.623,1.855,3.826,1.224,5.758C76.913,40.423,77.789,42.162,79.412,42.69z"/><path d="M44.246,53.2c-7.355-1.919-15.664,1.752-18.858,8.231c-3.259,6.608-0.103,13.95,7.317,16.346     c7.703,2.486,16.772-1.327,19.927-8.45C55.749,62.346,51.859,55.171,44.246,53.2z M38.63,70.075     c-3.249,5.211-12.149,2.467-8.695-3.852C33.164,61.1,41.972,63.757,38.63,70.075z M43.563,63.763     c-1.113,2.019-4.608,1.073-3.349-1.34C41.332,60.439,44.749,61.343,43.563,63.763z"/></g></g></g></svg>